<svg width="119" height="27" xmlns="http://www.w3.org/2000/svg">
 <!-- Generator: Sketch 55.2 (78181) - https://sketchapp.com -->

 <title>Group 2</title>
 <desc>Created with Sketch.</desc>
 <g>
  <title>background</title>
  <rect fill="none" id="canvas_background" height="402" width="582" y="-1" x="-1"/>
 </g>
 <g>
  <title>Layer 1</title>
  <g fill-rule="evenodd" fill="none" id="Marshmello_landing-page">
   <g fill-rule="nonzero" id="Simple_landngpage">
    <g id="Group-2">
     <path fill="#303535" id="Simple" d="m46.05,22.25c-1.50001,0 -2.78333,-0.225 -3.85,-0.675c-1.06667,-0.45 -1.875,-1.04166 -2.425,-1.775c-0.55,-0.73334 -0.84167,-1.53333 -0.875,-2.4c0,-0.13333 0.05,-0.25417 0.15,-0.3625c0.1,-0.10833 0.225,-0.1625 0.375,-0.1625l2.275,0c0.18333,0 0.33333,0.04167 0.45,0.125c0.11667,0.08333 0.225,0.2 0.325,0.35c0.16667,0.56667 0.54583,1.04166 1.1375,1.425c0.59167,0.38334 1.40416,0.575 2.4375,0.575c1.16667,0 2.04583,-0.19583 2.6375,-0.5875c0.59167,-0.39167 0.8875,-0.92916 0.8875,-1.6125c0,-0.45 -0.15,-0.825 -0.45,-1.125c-0.3,-0.3 -0.75416,-0.5625 -1.3625,-0.7875c-0.60834,-0.225 -1.51249,-0.49583 -2.7125,-0.8125c-1.96668,-0.46667 -3.40833,-1.08333 -4.325,-1.85c-0.91667,-0.76667 -1.375,-1.86666 -1.375,-3.3c0,-0.96667 0.26666,-1.82916 0.8,-2.5875c0.53334,-0.75834 1.29583,-1.35416 2.2875,-1.7875c0.99167,-0.43334 2.14583,-0.65 3.4625,-0.65c1.38334,0 2.57916,0.24166 3.5875,0.725c1.00834,0.48334 1.775,1.0875 2.3,1.8125c0.525,0.725 0.80417,1.44583 0.8375,2.1625c0,0.13333 -0.05,0.25417 -0.15,0.3625c-0.1,0.10833 -0.225,0.1625 -0.375,0.1625l-2.375,0c-0.36667,0 -0.61667,-0.15 -0.75,-0.45c-0.08333,-0.53334 -0.40833,-0.97916 -0.975,-1.3375c-0.56667,-0.35834 -1.26666,-0.5375 -2.1,-0.5375c-0.91667,0 -1.6375,0.175 -2.1625,0.525c-0.525,0.35 -0.7875,0.85833 -0.7875,1.525c0,0.45 0.13333,0.825 0.4,1.125c0.26667,0.3 0.68333,0.5625 1.25,0.7875c0.56667,0.225 1.39166,0.47917 2.475,0.7625c1.48334,0.33333 2.6625,0.70833 3.5375,1.125c0.875,0.41667 1.52083,0.94166 1.9375,1.575c0.41667,0.63334 0.625,1.44166 0.625,2.425c0,1.08334 -0.29583,2.02083 -0.8875,2.8125c-0.59167,0.79167 -1.42499,1.39583 -2.5,1.8125c-1.07501,0.41667 -2.32083,0.625 -3.7375,0.625zm10.175,-15.375c-0.16667,0 -0.30833,-0.05833 -0.425,-0.175c-0.11667,-0.11667 -0.175,-0.25833 -0.175,-0.425l0,-1.825c0,-0.18333 0.05833,-0.33333 0.175,-0.45c0.11667,-0.11667 0.25833,-0.175 0.425,-0.175l2.3,0c0.18333,0 0.33333,0.05833 0.45,0.175c0.11667,0.11667 0.175,0.26667 0.175,0.45l0,1.825c0,0.16667 -0.0625,0.30833 -0.1875,0.425c-0.125,0.11667 -0.27083,0.175 -0.4375,0.175l-2.3,0zm0.1,15.125c-0.16667,0 -0.30833,-0.05833 -0.425,-0.175c-0.11667,-0.11667 -0.175,-0.25833 -0.175,-0.425l0,-11.8c0,-0.18333 0.05833,-0.32917 0.175,-0.4375c0.11667,-0.10833 0.25833,-0.1625 0.425,-0.1625l2.125,0c0.16667,0 0.30833,0.05833 0.425,0.175c0.11667,0.11667 0.175,0.25833 0.175,0.425l0,11.8c0,0.16667 -0.05833,0.30833 -0.175,0.425c-0.11667,0.11667 -0.25833,0.175 -0.425,0.175l-2.125,0zm6.625,0c-0.16667,0 -0.30833,-0.05833 -0.425,-0.175c-0.11667,-0.11667 -0.175,-0.25833 -0.175,-0.425l0,-11.8c0,-0.18333 0.05833,-0.32917 0.175,-0.4375c0.11667,-0.10833 0.25833,-0.1625 0.425,-0.1625l1.975,0c0.18333,0 0.32917,0.05417 0.4375,0.1625c0.10833,0.10833 0.1625,0.25417 0.1625,0.4375l0,0.85c0.9,-1.13334 2.10833,-1.7 3.625,-1.7c1.85001,0 3.14166,0.74166 3.875,2.225c0.4,-0.66667 0.96666,-1.20416 1.7,-1.6125c0.73334,-0.40834 1.525,-0.6125 2.375,-0.6125c1.36667,0 2.48333,0.46666 3.35,1.4c0.86667,0.93334 1.3,2.29166 1.3,4.075l0,7.175c0,0.16667 -0.05417,0.30833 -0.1625,0.425c-0.10833,0.11667 -0.25417,0.175 -0.4375,0.175l-2.075,0c-0.16667,0 -0.30833,-0.05833 -0.425,-0.175c-0.11667,-0.11667 -0.175,-0.25833 -0.175,-0.425l0,-6.975c0,-1.05001 -0.22083,-1.80833 -0.6625,-2.275c-0.44167,-0.46667 -1.02083,-0.7 -1.7375,-0.7c-0.65,0 -1.20416,0.2375 -1.6625,0.7125c-0.45834,0.475 -0.6875,1.22916 -0.6875,2.2625l0,6.975c0,0.16667 -0.05417,0.30833 -0.1625,0.425c-0.10833,0.11667 -0.25417,0.175 -0.4375,0.175l-2.1,0c-0.16667,0 -0.30833,-0.05833 -0.425,-0.175c-0.11667,-0.11667 -0.175,-0.25833 -0.175,-0.425l0,-6.975c0,-1.03334 -0.225,-1.7875 -0.675,-2.2625c-0.45,-0.475 -1.025,-0.7125 -1.725,-0.7125c-0.65,0 -1.20416,0.2375 -1.6625,0.7125c-0.45834,0.475 -0.6875,1.22916 -0.6875,2.2625l0,6.975c0,0.16667 -0.05417,0.30833 -0.1625,0.425c-0.10833,0.11667 -0.25417,0.175 -0.4375,0.175l-2.125,0zm22.6,4.75c-0.16667,0 -0.30833,-0.05417 -0.425,-0.1625c-0.11667,-0.10833 -0.175,-0.25417 -0.175,-0.4375l0,-16.55c0,-0.18333 0.05833,-0.32917 0.175,-0.4375c0.11667,-0.10833 0.25833,-0.1625 0.425,-0.1625l2,0c0.18333,0 0.33333,0.05833 0.45,0.175c0.11667,0.11667 0.175,0.25833 0.175,0.425l0,1c0.88334,-1.23334 2.20832,-1.85 3.975,-1.85c1.68334,0 2.975,0.52916 3.875,1.5875c0.9,1.05834 1.38333,2.47916 1.45,4.2625c0.01667,0.2 0.025,0.5 0.025,0.9c0,0.4 -0.00833,0.7 -0.025,0.9c-0.05,1.75001 -0.52916,3.16249 -1.4375,4.2375c-0.90834,1.07501 -2.20416,1.6125 -3.8875,1.6125c-1.66668,0 -2.94166,-0.59166 -3.825,-1.775l0,5.675c0,0.18333 -0.05417,0.32917 -0.1625,0.4375c-0.10833,0.10833 -0.25417,0.1625 -0.4375,0.1625l-2.175,0zm5.65,-7.2c1.78334,0 2.73333,-1.09999 2.85,-3.3c0.01667,-0.16667 0.025,-0.41666 0.025,-0.75c0,-0.33334 -0.00833,-0.58333 -0.025,-0.75c-0.11667,-2.20001 -1.06666,-3.3 -2.85,-3.3c-0.95,0 -1.65833,0.30833 -2.125,0.925c-0.46667,0.61667 -0.71667,1.36666 -0.75,2.25c-0.01667,0.2 -0.025,0.51666 -0.025,0.95c0,0.43334 0.00833,0.75833 0.025,0.975c0.03333,0.83334 0.29166,1.54166 0.775,2.125c0.48334,0.58334 1.18333,0.875 2.1,0.875zm9.7,2.45c-0.16667,0 -0.30833,-0.05833 -0.425,-0.175c-0.11667,-0.11667 -0.175,-0.25833 -0.175,-0.425l0,-16.55c0,-0.18333 0.05833,-0.32917 0.175,-0.4375c0.11667,-0.10833 0.25833,-0.1625 0.425,-0.1625l2.1,0c0.18333,0 0.32917,0.05417 0.4375,0.1625c0.10833,0.10833 0.1625,0.25417 0.1625,0.4375l0,16.55c0,0.16667 -0.05417,0.30833 -0.1625,0.425c-0.10833,0.11667 -0.25417,0.175 -0.4375,0.175l-2.1,0zm11.65,0.25c-1.86668,0 -3.34583,-0.53333 -4.4375,-1.6c-1.09167,-1.06667 -1.67083,-2.58332 -1.7375,-4.55l-0.025,-0.625c0,-2.08334 0.54583,-3.725 1.6375,-4.925c1.09167,-1.20001 2.60416,-1.8 4.5375,-1.8c1.98334,0 3.5125,0.59999 4.5875,1.8c1.07501,1.2 1.6125,2.79999 1.6125,4.8l0,0.525c0,0.16667 -0.05833,0.30833 -0.175,0.425c-0.11667,0.11667 -0.26667,0.175 -0.45,0.175l-8.3,0l0,0.2c0.03333,0.93334 0.2875,1.70416 0.7625,2.3125c0.475,0.60834 1.12916,0.9125 1.9625,0.9125c0.95,0 1.725,-0.38333 2.325,-1.15c0.15,-0.18333 0.26667,-0.29583 0.35,-0.3375c0.08333,-0.04167 0.225,-0.0625 0.425,-0.0625l2.2,0c0.15,0 0.27917,0.04167 0.3875,0.125c0.10833,0.08333 0.1625,0.2 0.1625,0.35c0,0.4 -0.2375,0.87083 -0.7125,1.4125c-0.475,0.54167 -1.15416,1.0125 -2.0375,1.4125c-0.88334,0.4 -1.90833,0.6 -3.075,0.6zm2.725,-7.9l0,-0.05c0,-0.98334 -0.24583,-1.77083 -0.7375,-2.3625c-0.49167,-0.59167 -1.1625,-0.8875 -2.0125,-0.8875c-0.85,0 -1.51666,0.29583 -2,0.8875c-0.48334,0.59167 -0.725,1.37916 -0.725,2.3625l0,0.05l5.475,0z"/>
     <path fill="#FF0000" id="" d="m16.50276,17.22951l1.32597,-2.22951l5.17127,8.85246c-1.23758,1.00547 -2.60773,1.78142 -4.1105,2.32787c-1.50277,0.54645 -3.11601,0.81967 -4.83978,0.81967c-1.06078,0 -2.07734,-0.10929 -3.04972,-0.32787l5.50276,-9.44262zm-15.50276,0.77049l14,0l-5.343,9c-2.07408,-0.75556 -3.85506,-1.92221 -5.34299,-3.5c-1.48793,-1.57779 -2.59259,-3.4111 -3.31401,-5.5zm8.32317,-4.9893l1.67683,2.9893l-10.73171,0c-0.17886,-0.97327 -0.26829,-1.96969 -0.26829,-2.9893c0,-1.94654 0.33536,-3.77718 1.0061,-5.49198c0.67073,-1.71481 1.58739,-3.22103 2.75,-4.51872l5.56707,10.0107zm18.40854,-2.0107c0.17886,0.97327 0.26829,1.96969 0.26829,2.9893c0,1.94654 -0.33536,3.76559 -1.0061,5.45722c-0.67073,1.69163 -1.58739,3.20944 -2.75,4.55348l-7.2439,-13l10.73171,0zm-0.73171,-1l-14,0l5.343,-9c2.07408,0.75556 3.85506,1.92221 5.34299,3.5c1.48793,1.57779 2.59259,3.4111 3.31401,5.5zm-16.69613,1.86885l-0.1326,0.13115l-5.17127,-8.85246c1.23758,-1.00547 2.60773,-1.78142 4.1105,-2.32787c1.50277,-0.54645 3.11601,-0.81967 4.83978,-0.81967c1.06078,0 2.07734,0.10929 3.04972,0.32787l-6.69613,11.54098z"/>
    </g>
    <rect id="svg_4" height="0" width="0.217391" y="25.347785" x="181.869137" stroke-width="0" stroke="#000" fill="#fff"/>
    <ellipse ry="27.82599" rx="50.760692" id="svg_5" cy="15.130429" cx="85.673821" stroke-opacity="null" stroke-width="0" stroke="#000" fill="#ffffff"/>
    <text xml:space="preserve" text-anchor="start" font-family="Helvetica, Arial, sans-serif" font-size="24" id="svg_8" y="20.347802" x="33.608786" fill-opacity="null" stroke-opacity="null" stroke-width="0" stroke="#000" fill="#000000">Asisto</text>
   </g>
  </g>
 </g>
</svg>